<svg width="974" height="656" viewBox="0 0 974 656" fill="none" xmlns="http://www.w3.org/2000/svg">
<g id="fun">
<rect id="sky" width="974" height="443" fill="#142947"/>
<g id="ground">
<rect id="ground_2" y="444" width="974" height="212" fill="#142947" fill-opacity="0.33"/>
<path id="Vector" d="M327 554.136H171V556.108H327V554.136Z" fill="#2F2E41"/>
<path id="Vector_2" d="M513 595.55H357V597.522H513V595.55Z" fill="#2F2E41"/>
<path id="Vector_3" d="M640 653.726H576V655.698H640V653.726Z" fill="#2F2E41"/>
<path id="Vector_4" d="M241 636.964H177V638.936H241V636.964Z" fill="#2F2E41"/>
<path id="Vector_5" d="M807.583 497.931H532.417V499.903H807.583V497.931Z" fill="#2F2E41"/>
<path id="Vector_6" d="M830 623.159H679V625.131H830V623.159Z" fill="#2F2E41"/>
</g>
<path id="sunpath" d="M-6 320.5C137 214 245 139.5 317.5 111.5C352.856 97.8454 436 52 573 72.0001C692.541 89.4513 719.5 116.5 776.5 139.5C833.5 162.5 914 197.5 943.5 211.5C967.1 222.7 993.667 235.5 1004 240.5" stroke="black"/>
<path id="sun" d="M391.76 226.408C429.632 226.408 460.333 195.707 460.333 157.835C460.333 119.963 429.632 89.2622 391.76 89.2622C353.888 89.2622 323.187 119.963 323.187 157.835C323.187 195.707 353.888 226.408 391.76 226.408Z" fill="#00B0FF"/>
<g id="mountains">
<path id="Vector_7" d="M307.638 442.615L227.09 363.249L207.115 343.566L147.495 284.822L73.589 363.718L0 442.285" fill="#F2F2F2"/>
<path id="Vector_8" d="M704.31 443.094H159.71L227.09 370.054L351.58 224.034L359.97 214.194L472.58 82.104L550.5 205.514L552.54 208.744L651.67 365.724L704.31 443.094Z" fill="#F2F2F2"/>
<path id="Vector_9" d="M974 442.615L839.483 283.895L773.539 206.09L709.804 286.003L651.67 358.918L585.18 442.285" fill="#F2F2F2"/>
<path id="Vector_10" opacity="0.1" d="M207.115 343.566L171.622 367.363L129.717 350.855L73.589 363.718L147.495 284.822L207.115 343.566Z" fill="black"/>
<path id="Vector_11" opacity="0.1" d="M550.5 205.514L538.61 226.404L511.95 198.474L482.74 226.404L466.23 194.664L439.56 226.404L431.94 206.094L414.17 226.404L382.42 206.094L359.97 214.194L472.58 82.104L550.5 205.514Z" fill="black"/>
<path id="Vector_12" opacity="0.1" d="M839.483 283.895L806.555 324.187L779.888 292.441L739.253 325.457L709.804 286.003L773.539 206.09L839.483 283.895Z" fill="black"/>
<path id="Vector_13" d="M974 441.694H0V443.694H974V441.694Z" fill="#2F2E41"/>
</g>
<g id="something">
<path id="Vector_14" d="M221.452 80.3802C216.08 74.9864 209.438 71.0288 202.138 68.8709C194.837 66.7129 187.112 66.4236 179.67 68.0297C172.229 69.6358 165.31 73.0857 159.55 78.0627C153.789 83.0397 149.371 89.3841 146.702 96.5136L230.16 92.6466C227.961 88.1016 225.017 83.9558 221.452 80.3802Z" fill="#F2F2F2"/>
<path id="Vector_15" d="M401.452 13.3802C396.08 7.98642 389.438 4.02884 382.138 1.87086C374.837 -0.287125 367.112 -0.576353 359.67 1.02973C352.229 2.63582 345.31 6.08574 339.55 11.0627C333.789 16.0397 329.371 22.3841 326.702 29.5136L410.16 25.6466C407.961 21.1016 405.017 16.9558 401.452 13.3802Z" fill="#F2F2F2"/>
<path id="Vector_16" d="M718.452 180.38C713.08 174.986 706.438 171.029 699.138 168.871C691.837 166.713 684.112 166.424 676.67 168.03C669.229 169.636 662.31 173.086 656.55 178.063C650.789 183.04 646.371 189.384 643.702 196.514L727.16 192.647C724.961 188.102 722.017 183.956 718.452 180.38Z" fill="#F2F2F2"/>
</g>
<g id="trees">
<path id="Vector_17" d="M839.889 444.153L838.111 443.235C861.193 398.611 848.851 340.66 834.433 299.903C824.642 272.509 812.155 246.154 797.155 221.228L798.845 220.16C813.923 245.213 826.476 271.701 836.317 299.235C850.868 340.365 863.298 398.894 839.889 444.153Z" fill="#2F2E41"/>
<path id="Vector_18" d="M857.007 220.517L844.033 291.522L846 291.881L858.974 220.877L857.007 220.517Z" fill="#2F2E41"/>
<path id="Vector_19" d="M770.732 281.013L769.268 282.376L836.267 354.376L837.732 353.013L770.732 281.013Z" fill="#2F2E41"/>
<path id="Vector_20" d="M891.182 360.102L857.197 407.114L858.818 408.286L892.803 361.274L891.182 360.102Z" fill="#2F2E41"/>
<path id="Vector_21" d="M590.889 442.153L589.111 441.235C612.193 396.611 599.851 338.66 585.433 297.903C575.642 270.509 563.155 244.154 548.155 219.228L549.845 218.16C564.923 243.213 577.476 269.701 587.317 297.235C601.868 338.365 614.298 396.894 590.889 442.153Z" fill="#2F2E41"/>
<path id="Vector_22" d="M608.006 218.516L595.032 289.521L596.999 289.88L609.973 218.876L608.006 218.516Z" fill="#2F2E41"/>
<path id="Vector_23" d="M521.732 279.013L520.268 280.375L587.267 352.376L588.732 351.013L521.732 279.013Z" fill="#2F2E41"/>
<path id="Vector_24" d="M642.182 358.103L608.197 405.114L609.818 406.286L643.803 359.274L642.182 358.103Z" fill="#2F2E41"/>
<path id="Vector_25" d="M173.111 442.153L174.889 441.235C151.807 396.611 164.149 338.66 178.567 297.903C188.358 270.509 200.845 244.154 215.845 219.228L214.155 218.16C199.077 243.213 186.524 269.701 176.683 297.235C162.132 338.365 149.702 396.894 173.111 442.153Z" fill="#2F2E41"/>
<path id="Vector_26" d="M155.996 218.512L154.03 218.871L167.004 289.876L168.97 289.517L155.996 218.512Z" fill="#2F2E41"/>
<path id="Vector_27" d="M242.268 279.013L175.268 351.013L176.732 352.376L243.732 280.375L242.268 279.013Z" fill="#2F2E41"/>
<path id="Vector_28" d="M121.818 358.102L120.197 359.274L154.182 406.286L155.803 405.114L121.818 358.102Z" fill="#2F2E41"/>
</g>
<g id="leaves3">
<path id="Vector_29" d="M863 201.694C868.523 201.694 873 197.217 873 191.694C873 186.171 868.523 181.694 863 181.694C857.477 181.694 853 186.171 853 191.694C853 197.217 857.477 201.694 863 201.694Z" fill="#00B0FF"/>
<path id="Vector_30" d="M754 278.694C759.523 278.694 764 274.217 764 268.694C764 263.171 759.523 258.694 754 258.694C748.477 258.694 744 263.171 744 268.694C744 274.217 748.477 278.694 754 278.694Z" fill="#3F3D56"/>
<path id="Vector_31" d="M798 288.694C803.523 288.694 808 284.217 808 278.694C808 273.171 803.523 268.694 798 268.694C792.477 268.694 788 273.171 788 278.694C788 284.217 792.477 288.694 798 288.694Z" fill="#3F3D56"/>
<path id="Vector_32" d="M778 327.694C783.523 327.694 788 323.217 788 317.694C788 312.171 783.523 307.694 778 307.694C772.477 307.694 768 312.171 768 317.694C768 323.217 772.477 327.694 778 327.694Z" fill="#00B0FF"/>
<path id="Vector_33" d="M903 352.694C908.523 352.694 913 348.217 913 342.694C913 337.171 908.523 332.694 903 332.694C897.477 332.694 893 337.171 893 342.694C893 348.217 897.477 352.694 903 352.694Z" fill="#3F3D56"/>
<path id="Vector_34" d="M870 363.694C875.523 363.694 880 359.217 880 353.694C880 348.171 875.523 343.694 870 343.694C864.477 343.694 860 348.171 860 353.694C860 359.217 864.477 363.694 870 363.694Z" fill="#3F3D56"/>
<path id="Vector_35" d="M893 395.694C898.523 395.694 903 391.217 903 385.694C903 380.171 898.523 375.694 893 375.694C887.477 375.694 883 380.171 883 385.694C883 391.217 887.477 395.694 893 395.694Z" fill="#3F3D56"/>
<path id="Vector_36" d="M788 213.694C793.523 213.694 798 209.217 798 203.694C798 198.171 793.523 193.694 788 193.694C782.477 193.694 778 198.171 778 203.694C778 209.217 782.477 213.694 788 213.694Z" fill="#3F3D56"/>
</g>
<g id="leaves2">
<path id="Vector_37" d="M614 199.694C619.523 199.694 624 195.217 624 189.694C624 184.171 619.523 179.694 614 179.694C608.477 179.694 604 184.171 604 189.694C604 195.217 608.477 199.694 614 199.694Z" fill="#3F3D56"/>
<path id="Vector_38" d="M505 276.694C510.523 276.694 515 272.217 515 266.694C515 261.171 510.523 256.694 505 256.694C499.477 256.694 495 261.171 495 266.694C495 272.217 499.477 276.694 505 276.694Z" fill="#3F3D56"/>
<path id="Vector_39" d="M549 286.694C554.523 286.694 559 282.217 559 276.694C559 271.171 554.523 266.694 549 266.694C543.477 266.694 539 271.171 539 276.694C539 282.217 543.477 286.694 549 286.694Z" fill="#3F3D56"/>
<path id="Vector_40" d="M529 325.694C534.523 325.694 539 321.217 539 315.694C539 310.171 534.523 305.694 529 305.694C523.477 305.694 519 310.171 519 315.694C519 321.217 523.477 325.694 529 325.694Z" fill="#3F3D56"/>
<path id="Vector_41" d="M654 350.694C659.523 350.694 664 346.217 664 340.694C664 335.171 659.523 330.694 654 330.694C648.477 330.694 644 335.171 644 340.694C644 346.217 648.477 350.694 654 350.694Z" fill="#00B0FF"/>
<path id="Vector_42" d="M621 361.694C626.523 361.694 631 357.217 631 351.694C631 346.171 626.523 341.694 621 341.694C615.477 341.694 611 346.171 611 351.694C611 357.217 615.477 361.694 621 361.694Z" fill="#3F3D56"/>
<path id="Vector_43" d="M644 393.694C649.523 393.694 654 389.217 654 383.694C654 378.171 649.523 373.694 644 373.694C638.477 373.694 634 378.171 634 383.694C634 389.217 638.477 393.694 644 393.694Z" fill="#3F3D56"/>
<path id="Vector_44" d="M539 211.694C544.523 211.694 549 207.217 549 201.694C549 196.171 544.523 191.694 539 191.694C533.477 191.694 529 196.171 529 201.694C529 207.217 533.477 211.694 539 211.694Z" fill="#3F3D56"/>
</g>
<g id="leaves1">
<path id="Vector_45" d="M150 199.694C155.523 199.694 160 195.217 160 189.694C160 184.171 155.523 179.694 150 179.694C144.477 179.694 140 184.171 140 189.694C140 195.217 144.477 199.694 150 199.694Z" fill="#3F3D56"/>
<path id="Vector_46" d="M259 276.694C264.523 276.694 269 272.217 269 266.694C269 261.171 264.523 256.694 259 256.694C253.477 256.694 249 261.171 249 266.694C249 272.217 253.477 276.694 259 276.694Z" fill="#3F3D56"/>
<path id="Vector_47" d="M215 286.694C220.523 286.694 225 282.217 225 276.694C225 271.171 220.523 266.694 215 266.694C209.477 266.694 205 271.171 205 276.694C205 282.217 209.477 286.694 215 286.694Z" fill="#3F3D56"/>
<path id="Vector_48" d="M235 325.694C240.523 325.694 245 321.217 245 315.694C245 310.171 240.523 305.694 235 305.694C229.477 305.694 225 310.171 225 315.694C225 321.217 229.477 325.694 235 325.694Z" fill="#3F3D56"/>
<path id="Vector_49" d="M110 350.694C115.523 350.694 120 346.217 120 340.694C120 335.171 115.523 330.694 110 330.694C104.477 330.694 100 335.171 100 340.694C100 346.217 104.477 350.694 110 350.694Z" fill="#3F3D56"/>
<path id="Vector_50" d="M143 361.694C148.523 361.694 153 357.217 153 351.694C153 346.171 148.523 341.694 143 341.694C137.477 341.694 133 346.171 133 351.694C133 357.217 137.477 361.694 143 361.694Z" fill="#3F3D56"/>
<path id="Vector_51" d="M120 393.694C125.523 393.694 130 389.217 130 383.694C130 378.171 125.523 373.694 120 373.694C114.477 373.694 110 378.171 110 383.694C110 389.217 114.477 393.694 120 393.694Z" fill="#00B0FF"/>
<path id="Vector_52" d="M225 211.694C230.523 211.694 235 207.217 235 201.694C235 196.171 230.523 191.694 225 191.694C219.477 191.694 215 196.171 215 201.694C215 207.217 219.477 211.694 225 211.694Z" fill="#3F3D56"/>
</g>
<g id="guy">
<path id="Vector_53" d="M224.593 441.257C224.593 441.257 208.472 449.938 207.852 457.378C207.232 464.818 197.932 483.419 197.932 483.419C197.932 483.419 161.35 472.878 160.73 472.258C160.11 471.638 157.63 483.419 157.63 483.419L170.651 485.279L194.832 493.959C194.832 493.959 200.412 502.02 209.712 490.859C219.013 479.699 242.574 455.518 242.574 455.518L224.593 441.257Z" fill="#2F2E41"/>
<path id="Vector_54" d="M221.493 471.638C221.493 471.638 241.954 491.479 241.334 495.819C240.714 500.16 231.413 535.501 231.413 535.501L238.854 539.221L243.814 536.121L253.734 493.339C253.734 493.339 257.469 488.1 250.331 482.039C243.194 475.979 238.234 454.898 238.234 454.898L221.493 471.638Z" fill="#2F2E41"/>
<path id="Vector_55" d="M279.465 432.267C285.287 432.267 290.006 427.548 290.006 421.726C290.006 415.905 285.287 411.186 279.465 411.186C273.644 411.186 268.925 415.905 268.925 421.726C268.925 427.548 273.644 432.267 279.465 432.267Z" fill="#A0616A"/>
<path id="Vector_56" d="M272.335 420.176C272.335 420.176 261.795 415.216 260.555 416.456C259.314 417.696 263.035 432.577 263.035 432.577C263.035 432.577 272.955 426.997 274.195 426.997C275.435 426.997 272.335 420.176 272.335 420.176Z" fill="#A0616A"/>
<path id="Vector_57" d="M266.135 426.997C266.135 426.997 263.035 414.596 261.795 414.596C260.554 414.596 248.774 416.456 241.334 425.137C233.893 433.817 225.833 438.777 223.353 440.637C220.873 442.497 219.013 444.357 223.353 446.217C227.693 448.077 232.653 453.038 234.513 456.138C236.374 459.238 248.774 455.518 248.774 455.518C248.774 455.518 254.354 444.977 256.214 444.977C258.074 444.977 267.995 430.717 266.135 426.997Z" fill="#00B0FF"/>
<path id="Vector_58" d="M247.534 440.637C247.534 440.637 238.854 452.418 238.854 461.098C238.854 469.778 243.814 484.039 243.814 484.039C243.814 484.039 248.154 505.12 251.874 497.679C255.594 490.239 249.394 480.319 249.394 480.319L246.914 457.998L251.874 446.217L247.534 440.637Z" fill="#A0616A"/>
<path id="Vector_59" d="M162.683 472.974C162.683 472.974 155.77 467.918 155.15 469.778C154.53 471.638 145.23 492.719 148.33 493.959C151.43 495.199 160.73 482.799 161.35 482.799C161.97 482.799 160.916 472.449 162.683 472.974Z" fill="#2F2E41"/>
<path id="Vector_60" d="M242.574 532.401C242.574 532.401 251.874 537.361 253.734 537.361C255.594 537.361 259.314 539.841 254.974 541.081C250.634 542.321 231.413 544.181 230.793 542.321C230.173 540.461 230.793 535.501 230.793 535.501C230.793 535.501 242.574 534.261 242.574 532.401Z" fill="#2F2E41"/>
<path id="Vector_61" d="M291.69 421.536C291.974 420.773 292.076 419.955 291.987 419.145C291.929 417.364 291.806 415.416 290.595 414.108C289.975 413.439 289.103 412.986 288.666 412.185C288.436 411.623 288.249 411.045 288.106 410.456C287.798 409.752 287.327 409.131 286.731 408.646C286.135 408.162 285.431 407.826 284.68 407.668C283.174 407.366 281.63 407.31 280.107 407.501C277.922 407.544 275.756 407.925 273.688 408.631C272.655 408.992 271.719 409.585 270.951 410.365C270.183 411.144 269.604 412.088 269.257 413.126C269.074 413.936 268.987 414.764 268.998 415.594L268.907 419.046C269.253 419.351 269.685 419.541 270.143 419.59C270.601 419.639 271.063 419.545 271.466 419.321C272.306 418.948 273.018 418.321 273.872 417.978C274.283 417.77 274.751 417.702 275.204 417.784C275.657 417.866 276.071 418.094 276.383 418.433C276.551 418.739 276.697 419.056 276.82 419.383C278.522 422.771 283.095 419.165 285.47 419.217C287.595 419.263 290.133 424.876 291.69 421.536Z" fill="#2F2E41"/>
<path id="Vector_62" d="M257.968 544.225C273.419 544.225 275.908 538.469 276.011 538.211L274.862 537.744C274.837 537.802 272.191 543.535 255.617 542.942C239.528 542.367 214.634 542.863 211.308 542.933C210.375 541.355 206.194 534.951 200.29 536.133L200.534 537.349C206.206 536.211 210.365 543.779 210.407 543.856L210.587 544.189L210.966 544.181C211.239 544.175 238.429 543.57 255.572 544.181C256.403 544.21 257.202 544.225 257.968 544.225Z" fill="#2F2E41"/>
<path id="Vector_63" d="M257.892 550.382H258.257C259.526 550.382 260.554 549.353 260.554 548.084V547.719C260.554 546.45 259.526 545.421 258.257 545.421H257.892C256.623 545.421 255.594 546.45 255.594 547.719V548.084C255.594 549.353 256.623 550.382 257.892 550.382Z" fill="#2F2E41"/>
<path id="Vector_64" d="M215.11 550.382H215.475C216.744 550.382 217.773 549.353 217.773 548.084V547.719C217.773 546.45 216.744 545.421 215.475 545.421H215.11C213.841 545.421 212.813 546.45 212.813 547.719V548.084C212.813 549.353 213.841 550.382 215.11 550.382Z" fill="#2F2E41"/>
<path id="Vector_65" d="M264.275 425.757C264.275 425.757 261.327 440.682 258.151 443.45C254.974 446.217 254.227 448.898 252.121 449.728C250.014 450.558 242.574 441.877 242.574 441.257C242.574 440.637 264.275 425.757 264.275 425.757Z" fill="#00B0FF"/>
</g>
<g id="girl">
<path id="Vector_66" d="M430.01 432.129C436.656 432.129 442.044 426.741 442.044 420.095C442.044 413.449 436.656 408.062 430.01 408.062C423.364 408.062 417.977 413.449 417.977 420.095C417.977 426.741 423.364 432.129 430.01 432.129Z" fill="#2F2E41"/>
<path id="Vector_67" d="M423.512 429.241C423.512 429.241 423.753 433.573 420.865 434.054L424.956 443.922L430.01 452.105H434.342L436.99 449.698L436.509 446.569L435.065 441.034L433.38 439.349C433.38 439.349 433.62 432.37 435.786 429.241C437.953 426.112 423.512 429.241 423.512 429.241Z" fill="#FFB8B8"/>
<path id="Vector_68" opacity="0.1" d="M423.512 429.241C423.512 429.241 423.753 433.573 420.865 434.054L424.956 443.922L430.01 452.105H434.342L436.99 449.698L436.509 446.569L435.065 441.034L433.38 439.349C433.38 439.349 433.62 432.37 435.786 429.241C437.953 426.112 423.512 429.241 423.512 429.241Z" fill="black"/>
<path id="Vector_69" d="M433.38 414.319C436.57 414.319 439.156 411.733 439.156 408.543C439.156 405.353 436.57 402.767 433.38 402.767C430.19 402.767 427.604 405.353 427.604 408.543C427.604 411.733 430.19 414.319 433.38 414.319Z" fill="#2F2E41"/>
<path id="Vector_70" d="M427.844 406.136C427.844 405.378 427.994 404.626 428.284 403.926C428.574 403.225 429 402.588 429.536 402.052C430.072 401.515 430.709 401.09 431.41 400.8C432.111 400.509 432.862 400.36 433.62 400.36C433.697 400.36 433.772 400.363 433.847 400.366C433.062 400.128 432.235 400.061 431.422 400.168C430.609 400.275 429.827 400.554 429.13 400.987C428.433 401.419 427.837 401.996 427.38 402.677C426.922 403.358 426.616 404.129 426.48 404.938C426.344 405.747 426.382 406.576 426.592 407.369C426.801 408.162 427.177 408.901 427.694 409.538C428.212 410.174 428.859 410.693 429.593 411.06C430.326 411.427 431.13 411.634 431.95 411.666C430.762 411.307 429.722 410.575 428.983 409.58C428.244 408.584 427.844 407.376 427.844 406.136Z" fill="#2F2E41"/>
<path id="Vector_71" d="M422.068 434.295L419.661 434.054C418.992 433.861 418.283 433.848 417.606 434.017C416.93 434.186 416.31 434.531 415.811 435.017C414.126 436.702 416.051 455.715 416.051 455.715L422.068 451.624L423.031 441.997L422.068 434.295Z" fill="#FFB8B8"/>
<path id="Vector_72" d="M410.275 508.904L406.906 527.917C406.906 527.917 404.739 535.86 402.092 538.266C399.445 540.673 395.353 560.649 394.39 564.981C393.428 569.313 393.187 571.72 391.984 573.405C390.78 575.09 391.984 581.107 391.984 581.107H394.631L398.482 580.384C398.482 580.384 399.204 571.239 399.926 569.554C400.648 567.869 412.441 542.599 412.441 542.599C412.441 542.599 420.383 530.806 421.827 524.307C422.919 519.957 424.707 515.812 427.122 512.033L410.275 508.904Z" fill="#FFB8B8"/>
<path id="Vector_73" d="M434.583 507.941L437.712 529.843C437.712 529.843 437.712 536.582 438.675 539.229C439.637 541.877 440.359 557.52 441.322 561.131C442.285 564.741 444.451 572.683 443.729 573.646C442.884 575.192 442.16 576.801 441.563 578.459L443.969 583.754L450.468 579.181L449.505 539.71C449.505 539.71 452.152 506.257 450.468 505.294C448.783 504.331 440.359 501.443 434.583 507.941Z" fill="#FFB8B8"/>
<path id="Vector_74" d="M416.051 484.355L411.238 497.592C411.238 497.592 407.628 511.552 409.553 512.274C411.478 512.996 433.38 516.124 433.861 513.477C434.082 512.444 434.243 511.4 434.342 510.348C434.342 510.348 453.115 511.07 453.356 506.738C453.366 500.868 453.045 495.002 452.393 489.169C452.16 488.179 451.611 487.291 450.83 486.64C450.049 485.989 449.077 485.61 448.061 485.559C445.413 485.559 422.549 479.542 416.051 484.355Z" fill="#2F2E41"/>
<path id="Vector_75" d="M392.465 578.218C392.691 577.871 393.045 577.625 393.45 577.535C393.855 577.445 394.279 577.518 394.631 577.737C396.075 578.459 398.963 578.218 398.963 578.218L398.241 584.717C398.241 584.717 401.129 596.269 395.835 596.269C390.54 596.269 387.652 592.418 388.133 590.974C388.614 589.53 389.818 578.218 389.818 578.218C389.818 578.218 392.13 572.536 392.224 572.202C392.319 571.867 392.465 578.218 392.465 578.218Z" fill="#2F2E41"/>
<path id="Vector_76" d="M442.766 577.015C442.766 577.015 442.285 579.662 444.451 579.422C446.617 579.181 450.227 577.015 450.468 577.256C451.086 578.461 451.493 579.764 451.671 581.107C451.912 582.791 452.393 586.401 454.559 588.086C456.725 589.771 460.095 595.066 456.244 595.306C452.393 595.547 445.413 595.306 445.173 592.9C444.932 590.493 444.932 587.845 444.932 587.845C444.932 587.845 442.766 588.086 442.044 587.605C441.322 587.123 436.509 584.235 437.953 580.384C439.397 576.534 443.471 574.052 443.471 574.052L442.766 577.015Z" fill="#2F2E41"/>
<path id="Vector_77" d="M429.048 432.851C434.232 432.851 438.434 428.649 438.434 423.465C438.434 418.281 434.232 414.078 429.048 414.078C423.864 414.078 419.661 418.281 419.661 423.465C419.661 428.649 423.864 432.851 429.048 432.851Z" fill="#FFB8B8"/>
<path id="Vector_78" d="M434.102 441.034C434.102 441.034 438.434 441.034 439.397 443.441C440.359 445.847 438.434 450.902 438.434 450.902L436.239 445.537L434.102 441.034Z" fill="#FFB8B8"/>
<path id="Vector_79" d="M418.458 433.814H421.346C421.346 433.814 428.807 444.885 430.01 445.847C431.214 446.81 435.546 447.051 435.546 446.329C435.546 445.607 433.38 439.349 433.38 439.349L435.305 440.793L438.434 448.495C438.434 448.495 446.858 469.674 446.135 471.84C446.015 472.108 445.951 472.397 445.948 472.69C445.944 472.983 446 473.274 446.112 473.545C446.225 473.815 446.392 474.06 446.603 474.263C446.814 474.467 447.064 474.625 447.339 474.728C447.58 474.969 450.227 480.505 449.024 482.671C447.82 484.837 450.227 487.484 450.227 487.484C450.227 487.484 451.43 492.779 447.339 493.501C443.247 494.223 441.081 490.372 436.268 492.298C431.454 494.223 424.956 494.464 423.512 491.576C422.48 489.391 421.595 487.14 420.865 484.837C420.865 484.837 418.217 489.41 419.421 493.02C420.624 496.63 418.939 492.779 417.736 492.779C416.533 492.779 414.367 492.538 414.367 491.094C414.367 489.65 409.553 465.342 409.553 465.342L416.292 449.939C416.292 449.939 422.549 447.051 421.827 443.681C421.105 440.312 422.068 435.498 418.458 433.814Z" fill="#3F3D56"/>
<path id="Vector_80" d="M419.245 435.344C418.648 434.806 417.91 434.45 417.118 434.318C416.325 434.186 415.512 434.283 414.773 434.598C413.32 435.221 412.029 436.168 410.999 437.367C409.969 438.566 409.227 439.985 408.831 441.515C406.665 448.495 402.092 467.027 403.055 471.6C404.017 476.172 411.96 496.63 411.96 496.63C412.184 498.49 412.505 500.338 412.922 502.165C413.163 502.406 416.773 493.501 416.773 493.501L410.516 469.674L418.939 443.922C418.939 443.922 422.366 438.268 419.245 435.344Z" fill="#FFB8B8"/>
<path id="Vector_81" d="M429.89 421.539C435.007 421.539 439.156 418.845 439.156 415.522C439.156 412.199 435.007 409.506 429.89 409.506C424.773 409.506 420.624 412.199 420.624 415.522C420.624 418.845 424.773 421.539 429.89 421.539Z" fill="#2F2E41"/>
</g>
<g id="ball">
<path id="Vector_82" d="M705.123 583.719C705.124 585.736 704.362 587.679 702.99 589.158C701.618 590.638 699.738 591.543 697.726 591.694H697.72C697.523 591.713 697.326 591.719 697.123 591.719C696.073 591.719 695.032 591.512 694.062 591.11C693.091 590.708 692.209 590.119 691.466 589.376C690.723 588.633 690.134 587.751 689.732 586.78C689.33 585.81 689.123 584.769 689.123 583.719C689.122 583.678 689.124 583.637 689.129 583.596C689.157 581.649 689.895 579.78 691.203 578.338C692.512 576.897 694.302 575.983 696.237 575.768C696.531 575.736 696.827 575.719 697.123 575.719C699.005 575.717 700.827 576.38 702.268 577.59C703.709 578.801 704.676 580.481 705 582.334V582.34C705.081 582.795 705.123 583.257 705.123 583.719Z" fill="#00B0FF"/>
<path id="Vector_83" d="M705.123 583.719C705.124 585.736 704.362 587.679 702.99 589.158C701.618 590.638 699.738 591.543 697.726 591.694H697.72C696.919 590.614 696.493 589.302 696.508 587.957C696.523 586.612 696.979 585.31 697.804 584.248C698.63 583.187 699.78 582.425 701.08 582.079C702.379 581.734 703.756 581.823 705 582.334V582.34C705.081 582.795 705.123 583.257 705.123 583.719Z" fill="#F2F2F2"/>
<path id="Vector_84" d="M696.508 577.565C696.508 578.477 696.305 579.377 695.914 580.202C695.523 581.026 694.954 581.752 694.248 582.33C693.542 582.907 692.717 583.32 691.831 583.539C690.946 583.758 690.023 583.777 689.129 583.596C689.157 581.649 689.895 579.78 691.203 578.338C692.512 576.897 694.302 575.983 696.237 575.768C696.418 576.35 696.51 576.956 696.508 577.565Z" fill="#F2F2F2"/>
</g>
<g id="dog">
<path id="Vector_85" d="M775 572.212C775 577.183 767.573 576.497 766 581.212C760.497 597.707 756.949 578.761 757 572.212C757 569.825 757.948 567.536 759.636 565.848C761.324 564.16 763.613 563.212 766 563.212C768.387 563.212 770.676 564.16 772.364 565.848C774.052 567.536 775 569.825 775 572.212H775Z" fill="#2F2E41"/>
<path id="Vector_86" d="M763.457 597.178C763.457 597.178 763.35 608.511 761.874 609.249C760.398 609.987 752.017 611.571 753.493 614.154C754.269 615.431 755.498 616.368 756.934 616.778C758.371 617.189 759.909 617.042 761.243 616.368C763.826 614.892 770.1 606.035 770.1 606.035L763.457 597.178Z" fill="#3F3D56"/>
<path id="Vector_87" d="M794.825 607.142C794.825 607.142 794.825 607.251 794.836 607.444C794.927 608.741 795.326 609.997 795.999 611.109C796.672 612.221 797.6 613.157 798.707 613.839C799.813 614.522 801.066 614.932 802.361 615.035C803.657 615.137 804.959 614.93 806.159 614.431C807.236 614.008 808.169 613.944 808.003 615.106C807.634 617.689 807.741 621.166 809.586 621.166C811.431 621.166 814.014 616.737 812.538 611.94C811.365 608.546 809.752 605.32 807.741 602.345L794.825 607.142Z" fill="#3F3D56"/>
<path id="Vector_88" opacity="0.1" d="M763.457 597.178C763.457 597.178 763.35 608.511 761.874 609.249C760.398 609.987 752.017 611.571 753.493 614.154C754.269 615.431 755.498 616.368 756.934 616.778C758.371 617.189 759.909 617.042 761.243 616.368C763.826 614.892 770.1 606.035 770.1 606.035L763.457 597.178Z" fill="black"/>
<path id="Vector_89" opacity="0.1" d="M794.825 607.142C794.825 607.142 794.825 607.251 794.836 607.444C794.927 608.741 795.326 609.997 795.999 611.109C796.672 612.221 797.6 613.157 798.707 613.839C799.813 614.522 801.066 614.932 802.361 615.035C803.657 615.137 804.959 614.93 806.159 614.431C807.236 614.008 808.169 613.944 808.003 615.106C807.634 617.689 807.741 621.166 809.586 621.166C811.431 621.166 814.014 616.737 812.538 611.94C811.365 608.546 809.752 605.32 807.741 602.345L794.825 607.142Z" fill="black"/>
<path id="Vector_90" d="M755.395 573.913C756.179 572.187 757.346 570.663 758.807 569.456C760.2 568.291 761.856 567.485 763.631 567.107C765.406 566.729 767.247 566.791 768.992 567.287C777.48 569.501 778.587 575.774 778.587 575.774V578.306C778.571 579.521 778.92 580.712 779.589 581.726C780.258 582.74 781.216 583.53 782.339 583.993C784.217 584.727 815.155 583.692 817 581.847C818.332 580.361 819.439 578.688 820.288 576.882V576.953C820.318 580.334 819.437 583.66 817.737 586.583C816.994 587.63 816.596 588.883 816.598 590.167C816.967 592.75 818.074 599.762 815.86 602.345C813.645 604.928 814.753 606.773 817.336 607.142C819.919 607.511 824.347 606.773 823.978 611.202C823.609 615.63 824.347 617.475 822.502 617.475C820.657 617.475 819.845 616.906 818 612.847C818 612.847 816.598 611.94 811.431 613.416C808.073 614.375 803.661 615.284 802.37 612.677C799.515 606.911 781.158 608.048 776.978 613.82C775.866 615.464 774.506 616.927 772.947 618.156C772.219 618.728 771.416 619.197 770.561 619.551C768.347 620.335 765.671 620.612 763.826 618.582C760.136 614.523 770 613.847 770 613.847C770 613.847 771.576 610.095 770.838 607.511C770.838 607.511 761.981 605.666 761.612 594.226C761.612 594.226 749.803 594.226 747.957 588.322L746.112 582.417L749.662 580.287C752.159 578.789 754.151 576.579 755.382 573.94L755.395 573.913Z" fill="#3F3D56"/>
<path id="Vector_91" d="M746.279 584.923C747.23 584.923 748 583.932 748 582.709C748 581.486 747.23 580.495 746.279 580.495C745.329 580.495 744.559 581.486 744.559 582.709C744.559 583.932 745.329 584.923 746.279 584.923Z" fill="#2F2E41"/>
<path id="Vector_92" d="M783 575.847C783 581.37 774.748 580.608 773 585.847C766.885 604.174 762.943 583.124 763 575.847C763 573.195 764.054 570.651 765.929 568.776C767.804 566.901 770.348 565.847 773 565.847C775.652 565.847 778.196 566.901 780.071 568.776C781.946 570.651 783 573.195 783 575.847Z" fill="#2F2E41"/>
</g>
<g id="stars">
<path id="Star 1" d="M241.5 143L244.306 151.637H253.388L246.041 156.975L248.847 165.613L241.5 160.275L234.153 165.613L236.959 156.975L229.612 151.637H238.694L241.5 143Z" fill="#FAFF00"/>
<path id="Star 3" d="M780.5 70L783.306 78.6373H792.388L785.041 83.9754L787.847 92.6127L780.5 87.2746L773.153 92.6127L775.959 83.9754L768.612 78.6373H777.694L780.5 70Z" fill="#FAFF00"/>
<path id="Star 4" d="M93.5 137L95.4084 142.873L101.584 142.873L96.5878 146.503L98.4962 152.377L93.5 148.747L88.5038 152.377L90.4122 146.503L85.416 142.873L91.5916 142.873L93.5 137Z" fill="#FAFF00"/>
<path id="Star 5" d="M934.5 177L936.408 182.873L942.584 182.873L937.588 186.503L939.496 192.377L934.5 188.747L929.504 192.377L931.412 186.503L926.416 182.873L932.592 182.873L934.5 177Z" fill="#FAFF00"/>
<path id="Star 6" d="M645.5 109L647.408 114.873L653.584 114.873L648.588 118.503L650.496 124.377L645.5 120.747L640.504 124.377L642.412 118.503L637.416 114.873L643.592 114.873L645.5 109Z" fill="#FAFF00"/>
<path id="Star 7" d="M212.5 15L214.408 20.8734L220.584 20.8734L215.588 24.5033L217.496 30.3766L212.5 26.7467L207.504 30.3766L209.412 24.5033L204.416 20.8734L210.592 20.8734L212.5 15Z" fill="#FAFF00"/>
<path id="Star 8" d="M672.5 15L674.408 20.8734L680.584 20.8734L675.588 24.5033L677.496 30.3766L672.5 26.7467L667.504 30.3766L669.412 24.5033L664.416 20.8734L670.592 20.8734L672.5 15Z" fill="#FAFF00"/>
<path id="Star 9" d="M912.5 30L914.408 35.8734L920.584 35.8734L915.588 39.5033L917.496 45.3766L912.5 41.7467L907.504 45.3766L909.412 39.5033L904.416 35.8734L910.592 35.8734L912.5 30Z" fill="#FAFF00"/>
<path id="Star 2" d="M559 64L560.796 69.5279H566.608L561.906 72.9443L563.702 78.4721L559 75.0557L554.298 78.4721L556.094 72.9443L551.392 69.5279H557.204L559 64Z" fill="#FAFF00"/>
</g>
<rect id="filter" width="974" height="656" fill="#2D3E45"/>
</g>
</svg>
